<?xml version="1.0" encoding="UTF-8" standalone="no"?>
<!-- Created with Inkscape (http://www.inkscape.org/) -->

<svg
   width="200mm"
   height="200mm"
   viewBox="0 0 200 200"
   version="1.1"
   id="svg1"
   xmlns="http://www.w3.org/2000/svg"
   xmlns:svg="http://www.w3.org/2000/svg">
  <defs
     id="defs1" />
  <g
     id="layer1">
    <g
       id="g10"
       transform="matrix(1.050267,0,0,1.0502669,-10.278025,-57.791362)">
      <path
         style="fill:#1a1a1a;stroke-width:0.264583"
         id="rect2"
         width="190.42778"
         height="190.42778"
         x="9.7861071"
         y="55.025406"
         d="M 33.598606,55.025406 H 176.40139 a 23.812499,23.812499 45 0 1 23.8125,23.812499 V 221.64069 a 23.812499,23.812499 135 0 1 -23.8125,23.8125 H 33.598606 A 23.812499,23.812499 45 0 1 9.7861071,221.64069 V 78.837905 A 23.812499,23.812499 135 0 1 33.598606,55.025406 Z" />
      <g
         id="g9"
         transform="rotate(45,85.439425,146.23103)"
         style="fill:#fcf1e9;fill-opacity:1">
        <path
           id="path1"
           style="fill:#fcf1e9;fill-opacity:1;stroke-width:0.264583"
           d="m 59.65269,103.95799 a 63.194443,63.194443 0 0 0 -17.846973,44.01282 63.194443,63.194443 0 0 0 63.194073,63.19459 63.194443,63.194443 0 0 0 63.19459,-63.19459 63.194443,63.194443 0 0 0 -17.84697,-44.01282 l -15.98662,15.98611 a 40.590275,40.590275 0 0 1 11.22929,28.02671 40.590275,40.590275 0 0 1 -40.59029,40.59029 40.590275,40.590275 0 0 1 -40.590285,-40.59029 40.590275,40.590275 0 0 1 11.229289,-28.02671 z" />
        <path
           id="path1-3"
           style="fill:#fcf1e9;fill-opacity:1;stroke-width:0.15301"
           d="M 78.775349,123.00257 A 36.545797,36.545797 0 0 0 68.454317,148.4555 36.545797,36.545797 0 0 0 104.9999,185.00138 36.545797,36.545797 0 0 0 141.54578,148.4555 36.545797,36.545797 0 0 0 131.22475,123.00257 l -9.24518,9.24488 a 23.473646,23.473646 0 0 1 6.49398,16.20805 23.473646,23.473646 0 0 1 -23.47365,23.47365 23.473646,23.473646 0 0 1 -23.473655,-23.47365 23.473646,23.473646 0 0 1 6.493978,-16.20805 z" />
        <path
           id="rect1"
           style="fill:#fcf1e9;fill-opacity:1;stroke-width:0.264583"
           d="m 58.41602,66.079428 a 21.377072,21.377072 89.999999 0 0 10e-7,30.231746 l 45.354049,45.354046 a 1.7390222,1.7390222 1.2072074e-4 0 0 2.45934,1e-5 l 45.3545,-45.354111 a 21.376989,21.376989 90.00012 0 0 6e-5,-30.231693 v 0 l -46.58423,46.583724 z"
           transform="translate(1.676292e-5,2.921725)" />
      </g>
    </g>
  </g>
</svg>
